<svg width="21" height="24" viewBox="0 0 21 24" fill="none" xmlns="http://www.w3.org/2000/svg">
<path d="M7.75582 20.6735C8.35571 20.5466 12.0111 20.5466 12.611 20.6735C13.1239 20.7919 13.6784 21.0687 13.6784 21.673C13.6486 22.2483 13.3111 22.7583 12.8448 23.0822C12.2401 23.5536 11.5305 23.8521 10.7887 23.9597C10.3784 24.0128 9.97531 24.014 9.57935 23.9597C8.83634 23.8521 8.12672 23.5536 7.52325 23.081C7.05574 22.7583 6.71822 22.2483 6.68841 21.673C6.68841 21.0687 7.24298 20.7919 7.75582 20.6735ZM10.2543 0C12.7504 0 15.3003 1.18442 16.8149 3.1496C17.7977 4.415 18.2485 5.67919 18.2485 7.64436V8.1556C18.2485 9.66271 18.6468 10.551 19.5234 11.5747C20.1877 12.3289 20.4 13.297 20.4 14.3472C20.4 15.3963 20.0553 16.3922 19.3648 17.2007C18.4608 18.17 17.1859 18.7888 15.8847 18.8964C13.9991 19.0571 12.1124 19.1925 10.2006 19.1925C8.28761 19.1925 6.40206 19.1115 4.5165 18.8964C3.21415 18.7888 1.93922 18.17 1.0364 17.2007C0.345864 16.3922 0 15.3963 0 14.3472C0 13.297 0.213481 12.3289 0.876586 11.5747C1.7806 10.551 2.1527 9.66271 2.1527 8.1556V7.64436C2.1527 5.62601 2.65599 4.30622 3.69239 3.01423C5.23328 1.13004 7.70322 0 10.1469 0H10.2543Z" fill="black"/>
</svg>
