<svg width="18" height="18" viewBox="0 0 18 18" fill="none" xmlns="http://www.w3.org/2000/svg">
<path d="M2.925 0C2.14924 0 1.40526 0.440241 0.856713 1.22388C0.308169 2.00751 0 3.07035 0 4.17857V5.78571H18V4.17857C18 3.62983 17.9243 3.08647 17.7773 2.5795C17.6304 2.07253 17.4149 1.61189 17.1433 1.22388C16.8717 0.835859 16.5492 0.528068 16.1943 0.318075C15.8395 0.108082 15.4591 0 15.075 0H2.925ZM18 7.71429H0V13.8214C0 14.9297 0.308169 15.9925 0.856713 16.7761C1.40526 17.5598 2.14924 18 2.925 18H15.075C15.4591 18 15.8395 17.8919 16.1943 17.6819C16.5492 17.4719 16.8717 17.1641 17.1433 16.7761C17.4149 16.3881 17.6304 15.9275 17.7773 15.4205C17.9243 14.9135 18 14.3702 18 13.8214V7.71429ZM12.375 12.2143H14.625C14.804 12.2143 14.9757 12.3159 15.1023 12.4967C15.2289 12.6776 15.3 12.9228 15.3 13.1786C15.3 13.4343 15.2289 13.6796 15.1023 13.8604C14.9757 14.0413 14.804 14.1429 14.625 14.1429H12.375C12.196 14.1429 12.0243 14.0413 11.8977 13.8604C11.7711 13.6796 11.7 13.4343 11.7 13.1786C11.7 12.9228 11.7711 12.6776 11.8977 12.4967C12.0243 12.3159 12.196 12.2143 12.375 12.2143Z" fill="#EB4335"/>
</svg>
