<svg width="44" height="45" viewBox="0 0 44 45" fill="none" xmlns="http://www.w3.org/2000/svg">
<path d="M44.0002 22.6233C44.0002 20.8036 43.8525 19.4757 43.5329 18.0986H22.7539V26.3118H34.9507C34.7049 28.3529 33.377 31.4267 30.4261 33.4922L30.3847 33.7672L36.9547 38.8568L37.4099 38.9023C41.5902 35.0415 44.0002 29.361 44.0002 22.6233Z" fill="#4285F4"/>
<path d="M22.7533 44.2629C28.7287 44.2629 33.7451 42.2956 37.4093 38.9022L30.4255 33.4921C28.5567 34.7954 26.0484 35.7053 22.7533 35.7053C16.9008 35.7053 11.9335 31.8447 10.1628 26.5085L9.90329 26.5306L3.07176 31.8176L2.98242 32.0659C6.62179 39.2955 14.0973 44.2629 22.7533 44.2629Z" fill="#34A853"/>
<path d="M10.1631 26.5086C9.69591 25.1315 9.42551 23.656 9.42551 22.1314C9.42551 20.6067 9.69591 19.1314 10.1385 17.7543L10.1262 17.461L3.20902 12.0891L2.98271 12.1968C1.48275 15.1968 0.62207 18.5658 0.62207 22.1314C0.62207 25.6971 1.48275 29.0659 2.98271 32.066L10.1631 26.5086Z" fill="#FBBC05"/>
<path d="M22.7533 8.55746C26.909 8.55746 29.7123 10.3526 31.3108 11.8527L37.5567 5.75419C33.7207 2.18857 28.7287 0 22.7533 0C14.0973 0 6.62179 4.96726 2.98242 12.1968L10.1382 17.7544C11.9335 12.4182 16.9008 8.55746 22.7533 8.55746Z" fill="#EB4335"/>
</svg>
