<svg width="16" height="22" viewBox="0 0 16 22" fill="none" xmlns="http://www.w3.org/2000/svg">
<path d="M2 21.0909C1.45 21.0909 0.979333 20.8944 0.588 20.5014C0.196 20.1077 0 19.6346 0 19.0823V9.03896C0 8.48658 0.196 8.01354 0.588 7.61984C0.979333 7.22682 1.45 7.0303 2 7.0303H3V5.02165C3 3.63232 3.48767 2.44788 4.463 1.46833C5.43767 0.489443 6.61667 0 8 0C9.38333 0 10.5627 0.489443 11.538 1.46833C12.5127 2.44788 13 3.63232 13 5.02165V7.0303H14C14.55 7.0303 15.021 7.22682 15.413 7.61984C15.8043 8.01354 16 8.48658 16 9.03896V19.0823C16 19.6346 15.8043 20.1077 15.413 20.5014C15.021 20.8944 14.55 21.0909 14 21.0909H2ZM8 16.0693C8.55 16.0693 9.021 15.8728 9.413 15.4797C9.80433 15.086 10 14.613 10 14.0606C10 13.5082 9.80433 13.0352 9.413 12.6415C9.021 12.2485 8.55 12.0519 8 12.0519C7.45 12.0519 6.97933 12.2485 6.588 12.6415C6.196 13.0352 6 13.5082 6 14.0606C6 14.613 6.196 15.086 6.588 15.4797C6.97933 15.8728 7.45 16.0693 8 16.0693ZM5 7.0303H11V5.02165C11 4.1847 10.7083 3.4733 10.125 2.88745C9.54167 2.30159 8.83333 2.00866 8 2.00866C7.16667 2.00866 6.45833 2.30159 5.875 2.88745C5.29167 3.4733 5 4.1847 5 5.02165V7.0303Z" fill="black"/>
</svg>
