<svg width="16" height="27" viewBox="0 0 16 27" fill="none" xmlns="http://www.w3.org/2000/svg">
<path fill-rule="evenodd" clip-rule="evenodd" d="M3.2 0C2.35131 0 1.53737 0.344804 0.937258 0.95856C0.337142 1.57231 0 2.40475 0 3.27273V22.9091C0 23.7771 0.337142 24.6095 0.937258 25.2233C1.53737 25.837 2.35131 26.1818 3.2 26.1818H12.8C13.6487 26.1818 14.4626 25.837 15.0627 25.2233C15.6629 24.6095 16 23.7771 16 22.9091V3.27273C16 2.40475 15.6629 1.57231 15.0627 0.95856C14.4626 0.344804 13.6487 0 12.8 0H3.2ZM8 22.9091C8.42435 22.9091 8.83131 22.7367 9.13137 22.4298C9.43143 22.1229 9.6 21.7067 9.6 21.2727C9.6 20.8387 9.43143 20.4225 9.13137 20.1156C8.83131 19.8088 8.42435 19.6364 8 19.6364C7.57565 19.6364 7.16869 19.8088 6.86863 20.1156C6.56857 20.4225 6.4 20.8387 6.4 21.2727C6.4 21.7067 6.56857 22.1229 6.86863 22.4298C7.16869 22.7367 7.57565 22.9091 8 22.9091Z" fill="black"/>
</svg>
