<svg width="271" height="238" viewBox="0 0 271 238" fill="none" xmlns="http://www.w3.org/2000/svg">
<g filter="url(#filter0_d_92_50)">
<circle cx="156.142" cy="119.142" r="68.1416" stroke="#F10000" stroke-opacity="0.7" stroke-width="2"/>
</g>
<path d="M191.282 101.842C191.282 103.995 190.437 106.074 188.901 107.559L153.184 142.158C151.571 143.643 149.421 144.534 147.193 144.534C144.966 144.534 142.815 143.643 141.279 142.158L123.382 124.859C121.846 123.374 121.001 121.295 121.001 119.142C121.001 116.988 121.923 114.984 123.459 113.425C125.072 111.94 127.146 111.123 129.373 111.049C131.601 111.049 133.675 111.865 135.288 113.35L147.193 124.859L176.996 96.0508C178.609 94.5659 180.682 93.7491 182.91 93.7491C185.137 93.8234 187.211 94.6401 188.824 96.1993C190.36 97.6842 191.282 99.6889 191.282 101.842Z" fill="#EB4335"/>
<path d="M227.555 49.2975C235.449 50.0453 251.96 47.5668 254.855 31.6701C257.75 15.7734 265.491 11.3719 268.999 11.1582" stroke="#F3603F" stroke-width="3" stroke-linecap="round"/>
<path d="M217.194 193.674C224.301 195.8 238.04 203.876 236.145 219.179" stroke="#F7B23B" stroke-width="3" stroke-linecap="round" stroke-linejoin="round"/>
<path d="M2 172.372C13.2444 176.543 37.4855 179.535 44.495 158.133M44.495 158.133C45.5173 152.235 44.4952 140.57 32.2286 141.088C29.892 146.77 29.0741 158.133 44.495 158.133ZM44.495 158.133C49.6062 159.067 61.4931 158.176 68.1521 147.129" stroke="#6E89FA" stroke-width="3" stroke-linecap="round" stroke-linejoin="round"/>
<circle cx="180.132" cy="229.938" r="7.57163" fill="#637BFE"/>
<circle cx="251.067" cy="111.183" r="7.07163" stroke="#C05EFD"/>
<ellipse cx="132.312" cy="7.97014" rx="8.36864" ry="7.97014" fill="#53B175"/>
<path d="M66.8552 86.0774C66.8552 90.2276 63.6652 93.5476 59.7835 93.5476C55.9018 93.5476 52.7119 90.2276 52.7119 86.0774C52.7119 81.9273 55.9018 78.6073 59.7835 78.6073C63.6652 78.6073 66.8552 81.9273 66.8552 86.0774Z" stroke="#F7B23B"/>
<circle cx="77.3179" cy="205.231" r="7.86864" stroke="#53B175"/>
<circle cx="3.98507" cy="3.98507" r="3.98507" transform="matrix(-1 0 0 1 160.605 217.585)" fill="#53B175"/>
<defs>
<filter id="filter0_d_92_50" x="83" y="49" width="146.283" height="146.283" filterUnits="userSpaceOnUse" color-interpolation-filters="sRGB">
<feFlood flood-opacity="0" result="BackgroundImageFix"/>
<feColorMatrix in="SourceAlpha" type="matrix" values="0 0 0 0 0 0 0 0 0 0 0 0 0 0 0 0 0 0 127 0" result="hardAlpha"/>
<feOffset dy="3"/>
<feGaussianBlur stdDeviation="2"/>
<feColorMatrix type="matrix" values="0 0 0 0 0 0 0 0 0 0 0 0 0 0 0 0 0 0 0.12 0"/>
<feBlend mode="normal" in2="BackgroundImageFix" result="effect1_dropShadow_92_50"/>
<feBlend mode="normal" in="SourceGraphic" in2="effect1_dropShadow_92_50" result="shape"/>
</filter>
</defs>
</svg>
